<svg xmlns="http://www.w3.org/2000/svg" width="108" height="108">
    <defs>
        <style>
            .cls-2{fill:#fff}
        </style>
    </defs>
    <g id="Group_16316" data-name="Group 16316" transform="translate(-342 -1255)">
        <circle id="Ellipse_1446" data-name="Ellipse 1446" cx="54" cy="54" r="54" transform="translate(342 1255)" style="fill:#f37c21"/>
        <g id="develop" transform="translate(369.358 1282.338)">
            <g id="Group_16309" data-name="Group 16309" transform="translate(0 20.523)">
                <g id="Group_16308" data-name="Group 16308">
                    <path id="Path_17619" data-name="Path 17619" class="cls-2" d="M52.244 217.369a1.041 1.041 0 0 0 1.041-1.041v-1.82a7.127 7.127 0 0 0-3.926-6.361 5.569 5.569 0 0 0 1.98-4.259v-1.3a5.581 5.581 0 0 0-11.161 0v1.3a5.559 5.559 0 0 0 1.529 3.832 13.7 13.7 0 0 0-5.105 2.314l-9.424 6.875a3.811 3.811 0 0 0-.536.475 3.817 3.817 0 0 0-.536-.475l-9.424-6.875a13.7 13.7 0 0 0-5.105-2.314 5.559 5.559 0 0 0 1.529-3.832v-1.3a5.581 5.581 0 0 0-11.161 0v1.3a5.569 5.569 0 0 0 1.98 4.259A7.127 7.127 0 0 0 0 214.508v14.241a1.041 1.041 0 0 0 1.041 1.041h12.971a1.041 1.041 0 0 0 1.041-1.041v-9.556l6.809 4.106a3.8 3.8 0 0 0 3.87.055 3.9 3.9 0 0 0 .91-.711 3.893 3.893 0 0 0 .91.711 3.795 3.795 0 0 0 3.87-.055l6.809-4.106v9.556a1.041 1.041 0 0 0 1.041 1.041h12.972a1.041 1.041 0 0 0 1.041-1.041v-3.76a1.041 1.041 0 0 0-2.081 0v2.719h-10.89v-9.6a1.057 1.057 0 0 0-.013-.158l1.131-.682a1.041 1.041 0 0 0-1.075-1.782l-10.009 6.035a1.758 1.758 0 0 1-2.665-1.505 1.763 1.763 0 0 1 .722-1.42l9.424-6.875a11.623 11.623 0 0 1 6.894-2.247h1.441a5.045 5.045 0 0 1 5.039 5.039v1.82a1.041 1.041 0 0 0 1.041 1.036zM4.027 202.592a3.5 3.5 0 0 1 7 0v1.3a3.5 3.5 0 1 1-7 0zm20.681 18.95a1.738 1.738 0 0 1-1.772-.025l-10.009-6.035a1.041 1.041 0 0 0-1.075 1.782l1.13.681a1.053 1.053 0 0 0-.012.159v9.6H2.081v-13.2a5.045 5.045 0 0 1 5.039-5.039h1.442a11.623 11.623 0 0 1 6.894 2.247l9.424 6.875a1.763 1.763 0 0 1 .722 1.42 1.738 1.738 0 0 1-.894 1.535zm24.549-17.653a3.5 3.5 0 1 1-7 0v-1.3a3.5 3.5 0 0 1 7 0z" transform="translate(0 -197.011)"/>
                </g>
            </g>
            <g id="Group_16311" data-name="Group 16311" transform="translate(51.203 43.003)">
                <g id="Group_16310" data-name="Group 16310">
                    <path id="Path_17620" data-name="Path 17620" class="cls-2" d="M493.776 413.324a1.041 1.041 0 1 0 .3.736 1.048 1.048 0 0 0-.3-.736z" transform="translate(-492 -413.02)"/>
                </g>
            </g>
            <g id="Group_16313" data-name="Group 16313" transform="translate(11.161 .022)">
                <g id="Group_16312" data-name="Group 16312">
                    <path id="Path_17621" data-name="Path 17621" class="cls-2" d="M139.065.022h-3.434a1.041 1.041 0 1 0 0 2.081h.922L124.39 14.265l-7.959-7.959a1.041 1.041 0 0 0-1.472 0l-7.416 7.416a1.041 1.041 0 0 0 1.472 1.472l6.68-6.68 7.959 7.959a1.041 1.041 0 0 0 1.472 0l12.9-12.9V4.5a1.041 1.041 0 1 0 2.081 0V1.063a1.041 1.041 0 0 0-1.042-1.041z" transform="translate(-107.239 -.022)"/>
                </g>
            </g>
            <g id="Group_16315" data-name="Group 16315" transform="translate(8.534 16.045)">
                <g id="Group_16314" data-name="Group 16314">
                    <path id="Path_17622" data-name="Path 17622" class="cls-2" d="M83.776 154.286a1.04 1.04 0 1 0 .305.736 1.048 1.048 0 0 0-.305-.736z" transform="translate(-82 -153.981)"/>
                </g>
            </g>
        </g>
    </g>
</svg>
