<svg xmlns="http://www.w3.org/2000/svg" width="68.203" height="56.434">
    <path data-name="“" d="M35.019 45.23Q27.777 48.4 24.155 53a17.854 17.854 0 0 0-3.621 11.392 5.294 5.294 0 0 1 1.509-.151 13.442 13.442 0 0 1 9.2 3.32 11.441 11.441 0 0 1 3.772 9.054q0 6.338-3.621 10.11a12.391 12.391 0 0 1-9.351 3.775q-8 0-12-5.809t-4-16.221a35.428 35.428 0 0 1 5.734-19.993q5.734-8.676 17.805-14.41zm39.232 0Q67.009 48.4 63.387 53a17.854 17.854 0 0 0-3.621 11.392 5.294 5.294 0 0 1 1.509-.151 13.442 13.442 0 0 1 9.2 3.32 11.441 11.441 0 0 1 3.772 9.054q0 6.338-3.621 10.11a12.391 12.391 0 0 1-9.351 3.775q-8 0-12-5.809t-4-16.221a35.428 35.428 0 0 1 5.734-19.993q5.734-8.676 17.805-14.41z" transform="translate(-6.048 -34.064)" style="fill:#f37c21"/>
</svg>
