<svg xmlns="http://www.w3.org/2000/svg" width="108" height="108">
    <defs>
        <style>
            .cls-2{fill:#fff}
        </style>
    </defs>
    <g id="Group_16316" data-name="Group 16316" transform="translate(-342 -1255)">
        <circle id="Ellipse_1446" data-name="Ellipse 1446" cx="54" cy="54" r="54" transform="translate(342 1255)" style="fill:#f37c21"/>
        <g id="chat" transform="translate(368.995 1282)">
            <g id="Group_16337" data-name="Group 16337" transform="translate(.005)">
                <path id="Path_17627" data-name="Path 17627" class="cls-2" d="M50.972 0H3.041A3.037 3.037 0 0 0 .007 3.034v13.7a3.039 3.039 0 0 0 3.034 3.037h2.288l.029 4.42a1.055 1.055 0 0 0 1.677.844l7.2-5.265h8.463l3.441 5.01a1.055 1.055 0 0 0 1.739 0l3.441-5.01h8.466l7.193 5.264a1.055 1.055 0 0 0 1.678-.844l.031-4.421h2.289a3.039 3.039 0 0 0 3.034-3.037V3.034A3.038 3.038 0 0 0 50.972 0zm.928 16.735a.927.927 0 0 1-.924.927h-3.34a1.055 1.055 0 0 0-1.055 1.047l-.024 3.407-5.808-4.251a1.055 1.055 0 0 0-.623-.2H30.76a1.055 1.055 0 0 0-.869.458L27 22.322l-2.885-4.2a1.055 1.055 0 0 0-.869-.458h-9.359a1.055 1.055 0 0 0-.623.2l-5.81 4.251-.022-3.405a1.055 1.055 0 0 0-1.055-1.048H3.041a.927.927 0 0 1-.924-.927V3.034a.925.925 0 0 1 .924-.924h47.931a.925.925 0 0 1 .924.924z" transform="translate(-.007)"/>
                <path id="Path_17628" data-name="Path 17628" class="cls-2" d="M50.343 279.818a5.78 5.78 0 1 0-9.9 0 6.292 6.292 0 0 0-2.009 1.469 8.6 8.6 0 0 0-5.009-5.2 7.826 7.826 0 1 0-12.834 0 8.6 8.6 0 0 0-5.01 5.2 6.289 6.289 0 0 0-2.009-1.469 5.78 5.78 0 1 0-9.9 0 6.29 6.29 0 0 0-3.659 5.676v3.417a1.055 1.055 0 0 0 1.055 1.055h21.199a1.055 1.055 0 0 0 0-2.109h-5.041v-3.842a6.427 6.427 0 0 1 4.981-6.223 7.8 7.8 0 0 0 9.592 0 6.427 6.427 0 0 1 4.98 6.223v3.842h-5.041a1.055 1.055 0 0 0 0 2.109h21.211A1.055 1.055 0 0 0 54 288.911v-3.417a6.289 6.289 0 0 0-3.657-5.676zM8.617 273.17a3.67 3.67 0 1 1-3.672 3.672 3.675 3.675 0 0 1 3.672-3.672zm-6.5 14.686v-2.362a4.162 4.162 0 0 1 3.085-4 5.765 5.765 0 0 0 6.832 0 4.162 4.162 0 0 1 3.085 3.995v2.362zm19.172-16.243A5.717 5.717 0 1 1 27 277.33a5.723 5.723 0 0 1-5.714-5.717zm24.105 1.557a3.67 3.67 0 1 1-3.672 3.672 3.674 3.674 0 0 1 3.67-3.672zm-6.5 12.324a4.162 4.162 0 0 1 3.085-4 5.765 5.765 0 0 0 6.833 0 4.162 4.162 0 0 1 3.087 3.995v2.362h-13.01z" transform="translate(-.005 -235.966)"/>
                <path id="Path_17629" data-name="Path 17629" class="cls-2" d="M207.951 55.813h-27.464a1.055 1.055 0 0 0 0 2.109h27.465a1.055 1.055 0 1 0 0-2.109z" transform="translate(-160.508 -49.926)"/>
                <path id="Path_17630" data-name="Path 17630" class="cls-2" d="M53.188 57.922h7.842a1.055 1.055 0 1 0 0-2.109h-7.842a1.055 1.055 0 0 0 0 2.109z" transform="translate(-46.635 -49.926)"/>
                <path id="Path_17631" data-name="Path 17631" class="cls-2" d="M374.41 111.626h-7.839a1.055 1.055 0 0 0 0 2.109h7.839a1.055 1.055 0 0 0 0-2.109z" transform="translate(-326.967 -99.853)"/>
                <path id="Path_17632" data-name="Path 17632" class="cls-2" d="M80.652 111.626H53.188a1.055 1.055 0 0 0 0 2.109h27.464a1.055 1.055 0 0 0 0-2.109z" transform="translate(-46.635 -99.853)"/>
                <path id="Path_17633" data-name="Path 17633" class="cls-2" d="M247.041 492a1.055 1.055 0 0 0 0 2.109h.006a1.055 1.055 0 1 0-.006-2.109z" transform="translate(-220.043 -440.109)"/>
            </g>
        </g>
    </g>
</svg>
