<svg xmlns="http://www.w3.org/2000/svg" width="99.238" height="59.069">
    <defs>
        <style>
            .cls-1{fill:#a8bccb}
        </style>
    </defs>
    <g id="Group_16354" data-name="Group 16354" transform="translate(-80.061 -476.746)">
        <path id="Path_17717" data-name="Path 17717" class="cls-1" d="M132.006 484.422a1.187 1.187 0 0 1-.193-.016l-32.168-5.161a1.208 1.208 0 1 1 .384-2.386l32.168 5.164a1.207 1.207 0 0 1-.191 2.4" transform="translate(31.997 .166)"/>
        <path id="Path_17718" data-name="Path 17718" class="cls-1" d="M108.516 492.235a1.208 1.208 0 0 1-.005-2.416l8.525-.027h.005a1.207 1.207 0 0 1 .005 2.413l-8.525.03z" transform="translate(46.96 22.486)"/>
        <path id="Path_17719" data-name="Path 17719" class="cls-1" d="M103.188 525.32a1.211 1.211 0 0 1-.79-.294l-16.706-14.388a1.209 1.209 0 0 1-.419-.915v-29.594a1.21 1.21 0 0 1 1.212-1.207h21.472a1.208 1.208 0 1 1 0 2.416H87.694v27.832l16.287 14.03a1.208 1.208 0 0 1-.793 2.122" transform="translate(8.983 3.751)"/>
        <path id="Path_17720" data-name="Path 17720" class="cls-1" d="M119.714 511.473a6.274 6.274 0 0 1-3.788-1.269l-17.094-12.875a1.208 1.208 0 1 1 1.457-1.928l17.093 12.874a3.9 3.9 0 1 0 4.7-6.215l-23.768-17.9a1.208 1.208 0 1 1 1.457-1.928l23.768 17.9a6.3 6.3 0 0 1-2.936 11.278 6.561 6.561 0 0 1-.893.063" transform="translate(30.636 9.028)"/>
        <path id="Path_17721" data-name="Path 17721" class="cls-1" d="M117.174 510.682a6.3 6.3 0 0 1-3.8-1.272l-17.13-12.874a1.208 1.208 0 1 1 1.457-1.928l17.128 12.874a3.9 3.9 0 1 0 4.7-6.215l-15.87-11.954a1.209 1.209 0 1 1 1.46-1.928l15.867 11.954a6.306 6.306 0 0 1-3.816 11.344" transform="translate(27.061 17.916)"/>
        <path id="Path_17722" data-name="Path 17722" class="cls-1" d="M112.27 512.192a8.8 8.8 0 0 1-4.916-1.275l-13.375-10a1.209 1.209 0 1 1 1.454-1.931l13.375 10.006a7.783 7.783 0 0 0 6.915-.068c1.114-.733 1.509-1.9 1.2-3.571-.572-.436-1.806-1.37-3.4-2.576l-14.966-11.268a1.209 1.209 0 1 1 1.46-1.928l14.955 11.265a734.854 734.854 0 0 1 3.772 2.857 1.207 1.207 0 0 1 .441.675c.94 3.878-.934 5.777-2.135 6.561a8.825 8.825 0 0 1-4.78 1.253" transform="translate(23.155 21.701)"/>
        <path id="Path_17723" data-name="Path 17723" class="cls-1" d="M107.506 509.655c-7.294 0-15.922-8.07-16.3-8.424a1.209 1.209 0 1 1 1.664-1.754c.09.082 8.827 8.247 15.195 7.74a5.28 5.28 0 0 0 3.146-1.288 122.062 122.062 0 0 1-2.361-1.732L95.591 494.09a1.208 1.208 0 0 1 1.468-1.92l13.258 10.1c1.582 1.193 3.394 2.462 3.41 2.476a1.205 1.205 0 0 1 .267 1.721 7.746 7.746 0 0 1-5.733 3.154c-.248.019-.5.03-.754.03" transform="translate(18.564 26.16)"/>
        <path id="Path_17724" data-name="Path 17724" class="cls-1" d="M97.082 501.133a7.651 7.651 0 0 1-3.309-.752 7.09 7.09 0 0 1-4-5.246c-.629-3.7 1.836-5.706 3.816-7.315l.362-.3 11.967-8.549a11.99 11.99 0 0 1 9.47-1.964 1.236 1.236 0 0 1 .964 1.438 1.179 1.179 0 0 1-1.4.94 9.607 9.607 0 0 0-7.626 1.55l-12.21 8.753c-2.084 1.7-3.323 2.882-2.958 5.041a4.71 4.71 0 0 0 2.664 3.473 5.245 5.245 0 0 0 4.8-.136l17.207-10.48a1.208 1.208 0 0 1 1.261 2.062l-17.248 10.5a7.747 7.747 0 0 1-3.758.978" transform="translate(16.565)"/>
        <path id="Path_17725" data-name="Path 17725" class="cls-1" d="M112.857 518.005h11.668v-38.8h-11.668zm12.88 2.416h-14.089a1.21 1.21 0 0 1-1.212-1.206V478a1.21 1.21 0 0 1 1.212-1.207h14.089a1.209 1.209 0 0 1 1.209 1.207v41.218a1.209 1.209 0 0 1-1.209 1.206" transform="translate(52.352 .077)"/>
        <path id="Path_17726" data-name="Path 17726" class="cls-1" d="M82.482 518.005H94.15v-38.8H82.482zm12.88 2.416H81.273a1.21 1.21 0 0 1-1.212-1.206V478a1.21 1.21 0 0 1 1.212-1.207h14.089A1.209 1.209 0 0 1 96.571 478v41.218a1.209 1.209 0 0 1-1.209 1.206" transform="translate(0 .077)"/>
        <path id="Path_17727" data-name="Path 17727" class="cls-1" d="M86.329 489.342a2.69 2.69 0 1 0 2.7 2.691 2.7 2.7 0 0 0-2.7-2.691m0 7.795a5.105 5.105 0 1 1 5.115-5.1 5.115 5.115 0 0 1-5.115 5.1" transform="translate(1.987 17.546)"/>
        <path id="Path_17728" data-name="Path 17728" class="cls-1" d="M116.7 489.342a2.69 2.69 0 1 0 2.7 2.691 2.7 2.7 0 0 0-2.7-2.691m0 7.795a5.105 5.105 0 1 1 5.115-5.1 5.115 5.115 0 0 1-5.115 5.1" transform="translate(54.341 17.546)"/>
    </g>
</svg>
