<svg id="help" xmlns="http://www.w3.org/2000/svg" width="34" height="34">
    <defs>
        <style>
            .cls-1{fill:#17345e}
        </style>
    </defs>
    <path id="Path_17759" data-name="Path 17759" class="cls-1" d="M34 23.01a11.016 11.016 0 0 0-8.048-10.591A12.982 12.982 0 1 0 1.8 19.581L.048 25.917l6.336-1.752a12.934 12.934 0 0 0 6.035 1.787 10.994 10.994 0 0 0 16.181 6.52l5.35 1.48-1.48-5.35A10.951 10.951 0 0 0 34 23.01zm-27.3-1-3.795 1.05 1.049-3.793-.239-.374a10.987 10.987 0 1 1 3.357 3.357zm24.4 9.084-2.814-.779-.376.245a9 9 0 0 1-13.425-4.683 13.007 13.007 0 0 0 11.4-11.4A9 9 0 0 1 30.561 27.9l-.245.376zm0 0"/>
    <path id="Path_17760" data-name="Path 17760" class="cls-1" d="M180.5 271h1.992v1.992H180.5zm0 0" transform="translate(-168.514 -253.004)"/>
    <path id="Path_17761" data-name="Path 17761" class="cls-1" d="M141.477 93.984a1.972 1.972 0 0 1-.648 1.471l-2.34 2.142v2.431h1.992v-1.554l1.693-1.549a3.984 3.984 0 1 0-6.673-2.94h1.992a1.992 1.992 0 0 1 3.984 0zm0 0" transform="translate(-126.502 -84.023)"/>
</svg>
