<svg xmlns="http://www.w3.org/2000/svg" width="90.466" height="68.5">
    <path data-name="Path 17766" d="M74.181 143.142a1.757 1.757 0 0 0-1.757 1.757v34.08a3.127 3.127 0 0 1-.145.948L47.455 158.81l20.265-19.167a1.757 1.757 0 0 0-2.415-2.553l-26.17 24.751H36.8L6.2 132.9a3.144 3.144 0 0 1 .426-.029h55.82a1.757 1.757 0 1 0 0-3.514H6.628A6.629 6.629 0 0 0 0 135.987v42.993a6.652 6.652 0 0 0 2.093 4.834l.017.016a6.6 6.6 0 0 0 4.517 1.78H69.31a6.6 6.6 0 0 0 4.524-1.786l.008-.008a6.652 6.652 0 0 0 2.1-4.836V144.9a1.757 1.757 0 0 0-1.757-1.757zM3.514 178.98v-42.993a3.145 3.145 0 0 1 .082-.715l24.887 23.538-24.824 21.118a3.134 3.134 0 0 1-.145-.948zm3.114 3.12h-.092l24.515-20.856 3.846 3.637a1.757 1.757 0 0 0 1.207.48h3.73a1.757 1.757 0 0 0 1.207-.48l3.845-3.637L69.4 182.091h-.088z" transform="translate(.5 -117.61)" style="stroke:#fff;fill:#17345e"/>
    <g data-name="Group 16369">
        <g data-name="Group 16367" transform="translate(58.896)">
            <ellipse data-name="Ellipse 1449" cx="15.785" cy="15.793" rx="15.785" ry="15.793" style="fill:#ffdcc1"/>
        </g>
        <g data-name="Group 16368">
            <path data-name="Path 17767" d="M408.425 132.524a1.757 1.757 0 0 1-1.757-1.757v-7.116h-.139a1.757 1.757 0 1 1 0-3.514h1.9a1.757 1.757 0 0 1 1.757 1.757v8.873a1.757 1.757 0 0 1-1.761 1.757z" transform="translate(-333.147 -110.01)" style="fill:#17345e"/>
        </g>
    </g>
</svg>
