<svg xmlns="http://www.w3.org/2000/svg" width="388" height="120">
    <defs>
        <clipPath id="clip-path">
            <rect id="Rectangle_1074" data-name="Rectangle 1074" class="cls-1" width="388" height="120" rx="5" transform="translate(928 4079)"/>
        </clipPath>
        <clipPath id="clip-path-2">
            <path id="Rectangle_1071" data-name="Rectangle 1071" transform="translate(61.118 41)" style="fill:none" d="M0 0h309.764v68.573H0z"/>
        </clipPath>
        <style>
            .cls-1{fill:#f37c21}.cls-6{fill:#07284c}.cls-7{fill:#fff}.cls-9{fill-rule:evenodd;fill:#f26411}
        </style>
    </defs>
    <g id="Group_16353" data-name="Group 16353" transform="translate(-928 -4079)">
        <rect id="Rectangle_1072" data-name="Rectangle 1072" class="cls-1" width="388" height="120" rx="5" transform="translate(928 4079)"/>
        <g id="Mask_Group_2" data-name="Mask Group 2" style="clip-path:url(#clip-path)">
            <path id="Path_17715" data-name="Path 17715" d="M5.694 129.707v26.268L0 152.773v71.9l5.133-2.753v27.787h39.923l-.04-27.785 23.33 12.517 17.739-32.586-22.516-12.89 22.7-13.762-19.609-31.728-22.124 12.472.018-26.2z" transform="translate(928 3949.293)" style="fill:#e15516;opacity:.33"/>
        </g>
        <g id="Group_16352" data-name="Group 16352" transform="translate(906 4063.715)">
            <g id="Group_16351" data-name="Group 16351" style="clip-path:url(#clip-path-2)">
                <path id="Path_17654" data-name="Path 17654" class="cls-6" d="M144.4 67.683h-3.3l3.354-16.017h6.512a7.466 7.466 0 0 1 2.747.41 3.3 3.3 0 0 1 1.6 1.355 4.174 4.174 0 0 1 .59 2.256 6.17 6.17 0 0 1-.47 2.359 5.556 5.556 0 0 1-1.152 1.836 4.92 4.92 0 0 1-1.47 1.043 7.928 7.928 0 0 1-2.12.541 24.984 24.984 0 0 1-2.906.109h-2.108zm1.825-8.762h1.016a11.837 11.837 0 0 0 3.486-.329 2.843 2.843 0 0 0 1.376-1.047 2.717 2.717 0 0 0 .5-1.584 1.635 1.635 0 0 0-.257-.951 1.447 1.447 0 0 0-.721-.541 7.623 7.623 0 0 0-2.071-.17h-2.359z"/>
                <path id="Path_17655" data-name="Path 17655" class="cls-6" d="m156.118 67.683 3.354-16.017h3.288l-2.786 13.34h8.151l-.557 2.677z"/>
                <path id="Path_17656" data-name="Path 17656" class="cls-6" d="M173.053 51.666h3.288l-1.814 8.7-.448 2.14a3.3 3.3 0 0 0-.044.514 2.01 2.01 0 0 0 .694 1.567 2.944 2.944 0 0 0 2.016.618 3.89 3.89 0 0 0 1.967-.448 2.978 2.978 0 0 0 1.2-1.333 14.244 14.244 0 0 0 .864-3l1.836-8.752h3.288l-1.824 8.762a17.32 17.32 0 0 1-1.333 4.229 5.932 5.932 0 0 1-2.283 2.382 7.423 7.423 0 0 1-3.868.917 6.1 6.1 0 0 1-4.283-1.371 4.576 4.576 0 0 1-1.485-3.524 6.616 6.616 0 0 1 .076-.971q.045-.351.383-1.989z"/>
                <path id="Path_17657" data-name="Path 17657" class="cls-6" d="M195.067 67.683h-3.124l-.579-13.383-2.546 13.384h-2.971l3.343-16.017h4.7l.491 11.221 5.463-11.221h4.752l-3.353 16.017h-3.006l3.157-13.284z"/>
                <path id="Path_17658" data-name="Path 17658" class="cls-6" d="m204.474 67.684 3.354-16.018h5.472a18.951 18.951 0 0 1 2.491.11 5.262 5.262 0 0 1 2 .656 3.265 3.265 0 0 1 1.245 1.31 3.878 3.878 0 0 1 .426 1.814 3.714 3.714 0 0 1-.743 2.311 4.524 4.524 0 0 1-2.295 1.48 3.6 3.6 0 0 1 1.928 1.208 3.052 3.052 0 0 1 .694 1.96 5.036 5.036 0 0 1-.819 2.737 4.6 4.6 0 0 1-2.261 1.863 11.052 11.052 0 0 1-3.945.569zm3.835-2.579h3.179a9.033 9.033 0 0 0 2.682-.257 2.279 2.279 0 0 0 1.093-.848 2.144 2.144 0 0 0 .409-1.245 1.676 1.676 0 0 0-.59-1.316 2.963 2.963 0 0 0-1.966-.52h-3.934zm1.453-6.97h2.512a8.654 8.654 0 0 0 2.437-.242 2.034 2.034 0 0 0 1.486-1.955 1.458 1.458 0 0 0-.35-1.005 1.752 1.752 0 0 0-.994-.524 13.427 13.427 0 0 0-1.737-.066h-2.556z"/>
                <path id="Path_17659" data-name="Path 17659" class="cls-6" d="m220.513 67.683 3.354-16.017h3.289l-3.344 16.017z"/>
                <path id="Path_17660" data-name="Path 17660" class="cls-6" d="M239.676 67.683h-3.07l-4.327-10.762-2.25 10.762h-3.07l3.341-16.017h3.081l4.337 10.718 2.24-10.718h3.058z"/>
                <path id="Path_17661" data-name="Path 17661" class="cls-6" d="M251.945 59.129h7.167L257.671 66a13.411 13.411 0 0 1-6.862 1.955 6.854 6.854 0 0 1-4.556-1.344 6.589 6.589 0 0 1-2.163-5.32 11.146 11.146 0 0 1 .928-4.48 9.11 9.11 0 0 1 3.169-4 8.278 8.278 0 0 1 4.829-1.421 7.113 7.113 0 0 1 4.452 1.29 6.238 6.238 0 0 1 2.224 3.758l-3.07.35a3.874 3.874 0 0 0-1.306-2.044 3.627 3.627 0 0 0-2.267-.688 5.272 5.272 0 0 0-5.015 3.4 9.422 9.422 0 0 0-.755 3.792 4.212 4.212 0 0 0 .919 2.988 3.533 3.533 0 0 0 2.688.967 8.342 8.342 0 0 0 2.174-.3 9.718 9.718 0 0 0 1.923-.717l.491-2.38h-4.086z"/>
                <path id="Path_17662" data-name="Path 17662" class="cls-6" d="M278.991 60.526h-6.2l-1.5 7.157H268l3.354-16.017h3.289l-1.289 6.183h6.194l1.3-6.183h3.289l-3.344 16.017h-3.3z"/>
                <path id="Path_17663" data-name="Path 17663" class="cls-6" d="m284.1 67.683 3.344-16.017h11.875l-.557 2.677h-8.577l-.764 3.638h8.292l-.556 2.677h-8.293l-1.006 4.348h9.32l-.568 2.677z"/>
                <path id="Path_17664" data-name="Path 17664" class="cls-6" d="M309.517 64.142h-6.347l-1.924 3.541h-3.387l9.057-16.017h3.661l2.6 16.017h-3.124zm-.4-2.665-.93-6.446-3.867 6.446z"/>
                <path id="Path_17665" data-name="Path 17665" class="cls-6" d="M322.158 67.683h-3.3l2.8-13.34h-4.7l.558-2.677h12.62l-.558 2.677h-4.633z"/>
                <path id="Path_17666" data-name="Path 17666" class="cls-6" d="m328.712 67.683 3.354-16.017h3.289l-3.344 16.017z"/>
                <path id="Path_17667" data-name="Path 17667" class="cls-6" d="M347.875 67.683h-3.07l-4.326-10.762-2.251 10.762h-3.07l3.342-16.017h3.081l4.338 10.718 2.24-10.718h3.059z"/>
                <path id="Path_17668" data-name="Path 17668" class="cls-6" d="M360.144 59.129h7.168L365.87 66a13.411 13.411 0 0 1-6.862 1.955 6.854 6.854 0 0 1-4.556-1.344 6.589 6.589 0 0 1-2.163-5.32 11.146 11.146 0 0 1 .928-4.48 9.11 9.11 0 0 1 3.169-4 8.278 8.278 0 0 1 4.829-1.421 7.109 7.109 0 0 1 4.452 1.29 6.238 6.238 0 0 1 2.224 3.758l-3.07.35a3.874 3.874 0 0 0-1.306-2.044 3.627 3.627 0 0 0-2.267-.688 5.272 5.272 0 0 0-5.015 3.4 9.422 9.422 0 0 0-.754 3.792 4.212 4.212 0 0 0 .918 2.988 3.534 3.534 0 0 0 2.688.967 8.342 8.342 0 0 0 2.174-.3 9.718 9.718 0 0 0 1.923-.717l.491-2.38h-4.085z"/>
                <path id="Path_17669" data-name="Path 17669" class="cls-7" d="m137.993 84.529-3.332 15.915h7.452l1.991-9.519h2.369a39.1 39.1 0 0 0 4.685-.181 13.281 13.281 0 0 0 3.611-.932 8.842 8.842 0 0 0 2.629-1.86 9.834 9.834 0 0 0 2.04-3.229c.027-.064.044-.129.069-.194z"/>
                <path id="Path_17670" data-name="Path 17670" class="cls-6" d="M142.7 101.163h-8.921l3.631-17.353h23.152l-.385.981a2.67 2.67 0 0 1-.076.211 10.487 10.487 0 0 1-2.193 3.456 9.562 9.562 0 0 1-2.841 2.01 14.027 14.027 0 0 1-3.809.988 39.278 39.278 0 0 1-4.784.187h-1.785zm-7.151-1.439h5.982l1.992-9.518h2.953a38.483 38.483 0 0 0 4.583-.175 12.631 12.631 0 0 0 3.417-.873 8.147 8.147 0 0 0 2.413-1.713 8.321 8.321 0 0 0 1.526-2.2h-19.837z"/>
                <path id="Path_17671" data-name="Path 17671" class="cls-7" d="M160.193 79.585a7.258 7.258 0 0 0-1.029-3.081 6.3 6.3 0 0 0-3.028-2.562 12.622 12.622 0 0 0-4.707-.722h-11.068l-1.332 6.365z"/>
                <path id="Path_17672" data-name="Path 17672" class="cls-6" d="M161 80.3h-22.856l1.633-7.8h11.652a13.3 13.3 0 0 1 4.976.775 7 7 0 0 1 3.369 2.847 8 8 0 0 1 1.133 3.383zm-21.082-1.438h19.433a6.292 6.292 0 0 0-.793-1.982 5.6 5.6 0 0 0-2.688-2.275 11.934 11.934 0 0 0-4.437-.67h-10.488z"/>
                <path id="Path_17673" data-name="Path 17673" class="cls-7" d="m177.16 84.529 2.584 15.915h-7.169l-.835-5.518h-8.25l-3 5.518h-7.885l9-15.915z"/>
                <path id="Path_17674" data-name="Path 17674" class="cls-6" d="M180.589 101.163h-8.633l-.835-5.518h-7.2l-3 5.518h-9.546l9.813-17.353h16.583zm-7.4-1.439h5.711l-2.351-14.477h-14.522l-8.187 14.477h6.225l3-5.517h9.3z"/>
                <path id="Path_17675" data-name="Path 17675" class="cls-7" d="M175.324 73.221H168l-3.6 6.365h11.954z"/>
                <path id="Path_17676" data-name="Path 17676" class="cls-6" d="M177.2 80.3h-14.029l4.411-7.8h8.354zm-11.566-1.438h9.876l-.8-4.927h-6.291z"/>
                <path id="Path_17677" data-name="Path 17677" class="cls-7" d="M225.695 73.221h-7.324l-3.6 6.365h11.955z"/>
                <path id="Path_17678" data-name="Path 17678" class="cls-6" d="M227.572 80.3H213.54l4.412-7.8h8.355zm-11.567-1.438h9.878l-.8-4.927h-6.293z"/>
                <path id="Path_17679" data-name="Path 17679" class="cls-7" d="M205.946 76.493a6.19 6.19 0 0 0-3.138-2.615 14.306 14.306 0 0 0-4.843-.657h-12l-1.333 6.365h22.382a7.631 7.631 0 0 0-1.065-3.093"/>
                <path id="Path_17680" data-name="Path 17680" class="cls-6" d="M207.83 80.3h-24.086l1.633-7.8h12.587a14.984 14.984 0 0 1 5.092.7 6.888 6.888 0 0 1 3.5 2.909 8.358 8.358 0 0 1 1.169 3.38zm-22.316-1.438h20.636a6.568 6.568 0 0 0-.814-1.992 5.487 5.487 0 0 0-2.777-2.322 13.644 13.644 0 0 0-4.6-.613h-11.413z"/>
                <path id="Path_17681" data-name="Path 17681" class="cls-7" d="m211.976 84.529-7.439 13.155a58.319 58.319 0 0 0-3.424-7.227c-.217-.362-.443-.7-.674-1.019a9.108 9.108 0 0 0 4.452-2.53 8.031 8.031 0 0 0 1.516-2.379h-22.813l-3.334 15.915h7.451l2.163-10.337h1.177a3.839 3.839 0 0 1 1.908.291 6.467 6.467 0 0 1 1.858 2.776c1.275 2.943 2.137 5.124 2.564 6.479l.251.791h13.23l3-5.518h8.251l.833 5.518h7.171l-2.587-15.915z"/>
                <path id="Path_17682" data-name="Path 17682" class="cls-6" d="M230.959 101.163h-8.635l-.833-5.518h-7.205l-2.995 5.518H197.1l-.4-1.293c-.423-1.342-1.277-3.5-2.539-6.409a5.855 5.855 0 0 0-1.608-2.472 4.513 4.513 0 0 0-1.5-.162h-.593l-2.16 10.336h-8.921l3.636-17.353h24.473l-.413 1a8.78 8.78 0 0 1-1.652 2.591 9.359 9.359 0 0 1-3.842 2.442c.051.081.1.166.153.25a53.41 53.41 0 0 1 2.9 5.961l6.921-12.239h16.586zm-7.4-1.439h5.707l-2.349-14.477H212.4l-7.964 14.084-.561-1.375a57.723 57.723 0 0 0-3.378-7.136c-.2-.329-.413-.656-.635-.958l-.618-.847 1.012-.273a8.42 8.42 0 0 0 4.11-2.321 7.232 7.232 0 0 0 .879-1.174h-21.067l-3.032 14.477h5.981l2.163-10.336h1.761a4.351 4.351 0 0 1 2.307.411 7.306 7.306 0 0 1 2.118 3.089c1.283 2.958 2.154 5.161 2.591 6.549l.091.287h12.277l2.995-5.517h9.3z"/>
                <path id="Path_17683" data-name="Path 17683" class="cls-7" d="M262.513 73.221h-9.505l-3.1 6.365h11.272z"/>
                <path id="Path_17684" data-name="Path 17684" class="cls-6" d="M261.764 80.3h-13l3.8-7.8H263.4zm-10.7-1.438h9.536l1.032-4.927h-8.17z"/>
                <path id="Path_17685" data-name="Path 17685" class="cls-7" d="m233.833 84.529-3.321 15.915h6.957l2.323-12.222.53 12.222h6.663l5.583-11.722-2.787 11.722h7.03l3.332-15.915z"/>
                <path id="Path_17686" data-name="Path 17686" class="cls-6" d="M257.395 101.163h-8.523l1.427-6-2.86 6h-7.806l-.291-6.721-1.277 6.721h-8.438l3.622-17.353h27.78zm-6.7-1.439h5.535l3.031-14.477h-24.84L231.4 99.724h5.477l2.212-11.635 1.425.1.5 11.532h5.52l5.388-11.31 1.349.474z"/>
                <path id="Path_17687" data-name="Path 17687" class="cls-7" d="M245.515 73.221h-9.322l-1.328 6.365h10.929z"/>
                <path id="Path_17688" data-name="Path 17688" class="cls-6" d="M246.546 80.3H233.98l1.628-7.8h10.6zm-10.8-1.438h9.293l-.216-4.927h-8.05z"/>
                <path id="Path_17689" data-name="Path 17689" class="cls-7" d="M285.682 73.221h-20.423l-1.327 6.365h20.409z"/>
                <path id="Path_17690" data-name="Path 17690" class="cls-6" d="M284.924 80.3h-21.877l1.627-7.8h21.894zm-20.107-1.438h18.94l1.039-4.927h-18.952z"/>
                <path id="Path_17691" data-name="Path 17691" class="cls-7" d="M320.934 73.221H313.5l-1.333 6.365h7.436z"/>
                <path id="Path_17692" data-name="Path 17692" class="cls-6" d="M320.19 80.3h-8.906l1.634-7.8h8.9zm-7.135-1.438h5.967l1.028-4.927h-5.963z"/>
                <path id="Path_17693" data-name="Path 17693" class="cls-7" d="M307.8 100.443h7.451l3.322-15.915h-7.441z"/>
                <path id="Path_17694" data-name="Path 17694" class="cls-6" d="M315.835 101.163h-8.92l3.634-17.353h8.909zm-7.149-1.439h5.981l3.022-14.477h-5.972z"/>
                <path id="Path_17695" data-name="Path 17695" class="cls-7" d="M319.844 89c0 3.778.971 6.729 2.885 8.773a10.438 10.438 0 0 0 7.985 3.118 12.851 12.851 0 0 0 7.769-2.441 14.451 14.451 0 0 0 4.939-6.956l.467-1.293h-7.779a5.934 5.934 0 0 1-2.1 3.066 4.662 4.662 0 0 1-2.959 1.056 3.476 3.476 0 0 1-2.737-1.25 5.753 5.753 0 0 1-1.157-3.886 13.447 13.447 0 0 1 .879-4.654h-7.7a19.88 19.88 0 0 0-.5 4.466"/>
                <path id="Path_17696" data-name="Path 17696" class="cls-6" d="M330.715 101.605a11.126 11.126 0 0 1-8.511-3.346c-2.043-2.182-3.079-5.3-3.079-9.264a20.64 20.64 0 0 1 .516-4.628l.128-.557h9.3l-.357.967a12.754 12.754 0 0 0-.835 4.406 5.08 5.08 0 0 0 .978 3.411 2.759 2.759 0 0 0 2.2 1.006 3.922 3.922 0 0 0 2.516-.9 5.224 5.224 0 0 0 1.855-2.72l.161-.5h9.326l-.814 2.256a15.161 15.161 0 0 1-5.19 7.292 13.557 13.557 0 0 1-8.194 2.58m-9.792-16.357a19.345 19.345 0 0 0-.359 3.749c0 3.588.9 6.374 2.69 8.282a9.75 9.75 0 0 0 7.461 2.89 12.145 12.145 0 0 0 7.344-2.3 13.761 13.761 0 0 0 4.688-6.619l.119-.331h-6.248a6.513 6.513 0 0 1-2.163 2.914 5.356 5.356 0 0 1-3.4 1.208 4.212 4.212 0 0 1-3.277-1.493 6.427 6.427 0 0 1-1.337-4.362 13.723 13.723 0 0 1 .6-3.935z"/>
                <path id="Path_17697" data-name="Path 17697" class="cls-7" d="M344.294 79.585a9.465 9.465 0 0 0-2.827-4.341 10.781 10.781 0 0 0-7.3-2.449 13.717 13.717 0 0 0-7.263 2.04 13.528 13.528 0 0 0-4.608 4.75z"/>
                <path id="Path_17698" data-name="Path 17698" class="cls-6" d="M345.281 80.3h-24.242l.641-1.085a14.241 14.241 0 0 1 4.852-5 14.427 14.427 0 0 1 7.638-2.146 11.472 11.472 0 0 1 7.767 2.625 10.208 10.208 0 0 1 3.041 4.663zm-21.655-1.438h19.627A8.644 8.644 0 0 0 341 75.787a10.089 10.089 0 0 0-6.826-2.273 13.01 13.01 0 0 0-6.888 1.935 12.541 12.541 0 0 0-3.656 3.417"/>
                <path id="Path_17699" data-name="Path 17699" class="cls-7" d="M360.587 84.529h-12.9c.064.136.12.279.2.41a7.308 7.308 0 0 0 2.483 2.586 34.284 34.284 0 0 0 4.392 2.182 16.039 16.039 0 0 1 3.278 1.654 1.233 1.233 0 0 1 .512 1.006 1.582 1.582 0 0 1-.7 1.3 4.719 4.719 0 0 1-2.937.653c-1.64 0-2.778-.32-3.3-.931a4.377 4.377 0 0 1-.529-2.465l-.048-.726h-7.068l-.031 1a10.29 10.29 0 0 0 1.024 4.968 7.782 7.782 0 0 0 3.866 3.525 14.47 14.47 0 0 0 6.046 1.182 11.649 11.649 0 0 0 8.033-2.629 8.421 8.421 0 0 0 2.99-6.485 6.941 6.941 0 0 0-2.088-5.181 13.072 13.072 0 0 0-3.223-2.045"/>
                <path id="Path_17700" data-name="Path 17700" class="cls-6" d="M354.876 101.588a15.169 15.169 0 0 1-6.346-1.248 8.477 8.477 0 0 1-4.208-3.855 10.982 10.982 0 0 1-1.1-5.311l.052-1.7h8.438l.092 1.4a4.475 4.475 0 0 0 .366 2.054c.167.2.781.67 2.742.67a4.1 4.1 0 0 0 2.488-.5c.432-.347.432-.6.432-.737s-.019-.259-.253-.453a16.149 16.149 0 0 0-3.105-1.548 34.864 34.864 0 0 1-4.489-2.234 8.033 8.033 0 0 1-2.724-2.837 3.644 3.644 0 0 1-.169-.343l-.54-1.142h14.206l.151.075a13.659 13.659 0 0 1 3.407 2.177 7.624 7.624 0 0 1 2.3 5.692 9.109 9.109 0 0 1-3.23 7.021 12.34 12.34 0 0 1-8.512 2.813m-10.206-10.666-.009.3a9.559 9.559 0 0 0 .946 4.62 7.082 7.082 0 0 0 3.525 3.2 13.752 13.752 0 0 0 5.746 1.117 10.966 10.966 0 0 0 7.553-2.446 7.734 7.734 0 0 0 2.751-5.95 6.24 6.24 0 0 0-1.87-4.664 12.18 12.18 0 0 0-2.892-1.842h-11.475a6.629 6.629 0 0 0 1.808 1.668 33.8 33.8 0 0 0 4.294 2.132 17.944 17.944 0 0 1 3.459 1.767 1.934 1.934 0 0 1 .765 1.552 2.311 2.311 0 0 1-.968 1.859 5.521 5.521 0 0 1-3.39.812c-1.884 0-3.177-.4-3.845-1.185a4.927 4.927 0 0 1-.7-2.9v-.038z"/>
                <path id="Path_17701" data-name="Path 17701" class="cls-7" d="M307.529 77.89a9.64 9.64 0 0 0-1.951-2.343 8.744 8.744 0 0 0-2.54-1.532 11.468 11.468 0 0 0-3.056-.7c-.568-.064-1.784-.1-3.715-.1h-7.644l-1.331 6.365h21.039a10.669 10.669 0 0 0-.8-1.695"/>
                <path id="Path_17702" data-name="Path 17702" class="cls-6" d="M309.37 80.3h-22.963l1.632-7.8h8.229c1.985 0 3.191.032 3.794.1a12.144 12.144 0 0 1 3.239.745A9.5 9.5 0 0 1 306.049 75a10.336 10.336 0 0 1 2.1 2.517 11.325 11.325 0 0 1 .859 1.812zm-21.193-1.438h19.063a7.117 7.117 0 0 0-.328-.608 8.917 8.917 0 0 0-1.8-2.166 8.016 8.016 0 0 0-2.332-1.407 10.737 10.737 0 0 0-2.865-.655c-.543-.061-1.767-.091-3.644-.091h-7.06z"/>
                <path id="Path_17703" data-name="Path 17703" class="cls-7" d="M309.192 84.529h-7.414v.023a12 12 0 0 1-.938 4.949 9.962 9.962 0 0 1-2.284 3.3 4.518 4.518 0 0 1-1.865 1.052 15.5 15.5 0 0 1-3.8.309h-1.631l2.01-9.637h-7.032l-1.616 7.682-.371 1.8h-16l1.039-4.507h12.944l1.034-4.966H262.9l-3.321 15.915h33.537a24.21 24.21 0 0 0 5.185-.406 12.809 12.809 0 0 0 5.05-2.323 15.332 15.332 0 0 0 4.188-5.35 17.173 17.173 0 0 0 1.659-7.66c0-.061-.005-.117-.006-.176"/>
                <path id="Path_17704" data-name="Path 17704" class="cls-6" d="M293.115 101.163h-34.422l3.622-17.353h21.837l-1.333 6.4h-12.958l-.711 3.08h14.514l1.99-9.484h8.5l-2.01 9.637h.748a14.837 14.837 0 0 0 3.606-.283 3.809 3.809 0 0 0 1.574-.891 9.254 9.254 0 0 0 2.112-3.07 11.288 11.288 0 0 0 .874-4.651v-.719l.719-.023h8.117l.021.9a17.9 17.9 0 0 1-1.732 7.979 16.047 16.047 0 0 1-4.388 5.6 13.506 13.506 0 0 1-5.327 2.456 24.921 24.921 0 0 1-5.354.426m-32.651-1.439h32.651a23.567 23.567 0 0 0 5.021-.386 12.058 12.058 0 0 0 4.765-2.184 14.664 14.664 0 0 0 3.994-5.106 16.238 16.238 0 0 0 1.576-6.8h-5.989a12.2 12.2 0 0 1-.987 4.55 10.669 10.669 0 0 1-2.455 3.54 5.2 5.2 0 0 1-2.158 1.212 16.688 16.688 0 0 1-3.989.336h-2.518l2.01-9.638h-5.564l-1.984 9.485h-17.494l1.376-5.956h12.931l.734-3.529h-18.9z"/>
                <path id="Path_17705" data-name="Path 17705" class="cls-7" d="M364.524 75.126a11.285 11.285 0 0 0-7.536-2.331c-3.16 0-5.637.8-7.369 2.373a7.794 7.794 0 0 0-2.495 4.417h20.157a8.454 8.454 0 0 0-2.757-4.459"/>
                <path id="Path_17706" data-name="Path 17706" class="cls-6" d="M368.2 80.3h-21.943l.159-.851a8.521 8.521 0 0 1 2.718-4.816c1.868-1.7 4.51-2.561 7.854-2.561a11.97 11.97 0 0 1 8 2.5 9.173 9.173 0 0 1 2.987 4.831zm-20.159-1.438H366.3a7.713 7.713 0 0 0-2.248-3.193 10.593 10.593 0 0 0-7.068-2.159c-2.975 0-5.291.736-6.885 2.186a7.166 7.166 0 0 0-2.06 3.166"/>
                <path id="Path_17707" data-name="Path 17707" d="m130.59 67.172-10.969-17.75-12.378 6.978.011-14.657-21.741-.023v14.7l-12.434-6.997-10.967 17.749 12.692 7.7-12.6 7.211 9.937 18.23 13.057-7v15.546h22.335l-.022-15.545 13.052 7 9.924-18.231-12.6-7.211z" style="fill-rule:evenodd;fill:#f16412"/>
                <path id="Path_17708" data-name="Path 17708" class="cls-6" d="M108.254 109.573H84.48V94.51l-12.627 6.772-10.616-19.474 12.151-6.956-12.27-7.442L72.83 48.458l11.964 6.728V41l23.179.024-.01 14.143 11.906-6.711 11.714 18.954-12.275 7.442 12.148 6.955-10.6 19.477-12.622-6.771zm-22.336-1.438h20.9l-.023-16.028 13.483 7.234 9.246-16.984-13.045-7.469 13.121-7.955-10.228-16.546-12.849 7.243.011-15.17-20.3-.021v15.205l-12.9-7.256L63.1 66.933l13.12 7.955-13.046 7.468 9.258 16.984 13.486-7.233z"/>
                <path id="Path_17709" data-name="Path 17709" class="cls-7" d="m127.481 66.68-8.654-14-13.843 7.8.016-16.251-17.263-.018v16.283l-13.9-7.816-8.653 14 14.011 8.5L65.2 83.187l7.825 14.352 14.393-7.72v17.049h17.855l-.025-17.049 14.394 7.72 7.813-14.352-13.991-8.009z"/>
                <path id="Path_17710" data-name="Path 17710" class="cls-9" d="M95.783 53.5c2.164 5.515.348 8.575-5.338 13.435-4.462 3.877-6.215 8.676-5.429 13.16a12.969 12.969 0 0 0 10.151 9.5 14.687 14.687 0 0 0 10.564-3.246c-8.543 4.316-16.391-2.89-12.984-11.449a19.937 19.937 0 0 1 2.6-4.13c3.051-3.855 5.3-7.659 4.308-10.86-1.345-4.335-1.8-3.362-3.868-6.411"/>
                <path id="Path_17711" data-name="Path 17711" d="M101.637 72.12c.357 2 .807 3.086 2.689 5.318a11.518 11.518 0 0 1 1.6 2.391 5.091 5.091 0 0 1-4.331 7.353h-.034a5.086 5.086 0 0 1-4.238-7.343 11.424 11.424 0 0 1 1.6-2.393 9.9 9.9 0 0 0 2.692-5.326" style="fill-rule:evenodd;fill:#07284c"/>
                <path id="Path_17712" data-name="Path 17712" d="M104.931 82.659c.307 1.3-.706 2.411-1.656 3.051.006-.765.717-1.056.728-1.789.363-.857.738-1.387.928-1.262" style="fill-rule:evenodd;fill:#fff"/>
                <path id="Path_17713" data-name="Path 17713" class="cls-9" d="M98.087 68.547c1.139 2.9.183 4.514-2.81 7.073a7.456 7.456 0 0 0-2.858 6.926c.643 2.465.691 5.3 3.414 5.828a25.74 25.74 0 0 0 7.352-.817c-5.518 1.184-8.49-3.243-6.7-7.744a10.537 10.537 0 0 1 1.367-2.174c1.6-2.029 2.79-4.032 2.268-5.716-.708-2.282-.949-1.771-2.036-3.376"/>
                <path id="Path_17714" data-name="Path 17714" class="cls-6" d="M365.133 97.474a3.026 3.026 0 0 1 .641-.951 2.986 2.986 0 0 1 .952-.641 3.014 3.014 0 0 1 2.329 0 2.985 2.985 0 0 1 .952.641 3.025 3.025 0 0 1 .641.951 3.026 3.026 0 0 1 0 2.329 2.978 2.978 0 0 1-.641.948 2.937 2.937 0 0 1-.952.629 3.126 3.126 0 0 1-2.329 0 2.938 2.938 0 0 1-.952-.629 2.979 2.979 0 0 1-.641-.948 3.014 3.014 0 0 1 0-2.329m.827 1.991a2.123 2.123 0 0 0 .435.681 2.082 2.082 0 0 0 2.991 0 2.105 2.105 0 0 0 .435-.681 2.238 2.238 0 0 0 0-1.652 2.11 2.11 0 0 0-.435-.682 2.074 2.074 0 0 0-.661-.459 2.131 2.131 0 0 0-1.668 0 2.068 2.068 0 0 0-.662.459 2.127 2.127 0 0 0-.435.682 2.252 2.252 0 0 0 0 1.652m2.02-2.439a1.426 1.426 0 0 1 .934.258.919.919 0 0 1 .307.742.84.84 0 0 1-.23.633.96.96 0 0 1-.568.262l.8 1.33h-.774l-.757-1.3h-.259v1.3h-.709v-3.225zm-.009 1.363a.933.933 0 0 0 .388-.072c.1-.049.152-.159.152-.331a.321.321 0 0 0-.206-.331.707.707 0 0 0-.2-.052 1.884 1.884 0 0 0-.205-.012h-.468v.8z"/>
            </g>
        </g>
    </g>
</svg>
