<svg xmlns="http://www.w3.org/2000/svg" width="108" height="108">
    <defs>
        <style>
            .cls-2{fill:#f37c21}
        </style>
    </defs>
    <g id="Group_16316" data-name="Group 16316" transform="translate(-342 -1255)">
        <circle id="Ellipse_1446" data-name="Ellipse 1446" cx="54" cy="54" r="54" transform="translate(342 1255)" style="fill:#fff"/>
        <g id="megaphone" transform="translate(365 1226.533)">
            <g id="Group_16318" data-name="Group 16318" transform="translate(16.085 55.467)">
                <g id="Group_16317" data-name="Group 16317">
                    <path id="Path_17623" data-name="Path 17623" class="cls-2" d="M151.637 55.467a4.6 4.6 0 0 0-4.6 4.6v.831l-26.853 10.74a1.151 1.151 0 0 0-.722 1.067v16.081a1.149 1.149 0 0 0 .722 1.066l26.853 10.74v.832a4.6 4.6 0 0 0 9.191 0V60.063a4.6 4.6 0 0 0-4.591-4.596zm2.3 45.957a2.3 2.3 0 0 1-4.6 0v-1.608a1.148 1.148 0 0 0-.723-1.067l-26.852-10.74v-14.53l26.852-10.74a1.151 1.151 0 0 0 .723-1.067v-1.609a2.3 2.3 0 1 1 4.6 0z" transform="translate(-119.467 -55.467)"/>
                </g>
            </g>
            <g id="Group_16320" data-name="Group 16320" transform="translate(0 71.552)">
                <g id="Group_16319" data-name="Group 16319">
                    <path id="Path_17624" data-name="Path 17624" class="cls-2" d="M17.234 174.933H9.192a9.192 9.192 0 1 0 0 18.383h8.043a1.149 1.149 0 0 0 1.149-1.149v-16.085a1.149 1.149 0 0 0-1.15-1.149zm-1.149 16.085H9.192a6.894 6.894 0 1 1 0-13.787h6.894v13.787z" transform="translate(0 -174.933)"/>
                </g>
            </g>
            <g id="Group_16322" data-name="Group 16322" transform="translate(50.553 73.85)">
                <g id="Group_16321" data-name="Group 16321">
                    <path id="Path_17625" data-name="Path 17625" class="cls-2" d="m383.873 194.357-6.894-2.3a1.149 1.149 0 0 0-1.512 1.09v11.489a1.147 1.147 0 0 0 1.149 1.149 1.128 1.128 0 0 0 .363-.06l6.894-2.3a1.145 1.145 0 0 0 .786-1.089v-6.894a1.149 1.149 0 0 0-.786-1.085zm-1.512 7.156-4.6 1.532v-8.3l4.6 1.532z" transform="translate(-375.467 -192.001)"/>
                </g>
            </g>
            <g id="Group_16324" data-name="Group 16324" transform="translate(6.893 87.637)">
                <g id="Group_16323" data-name="Group 16323">
                    <path id="Path_17626" data-name="Path 17626" class="cls-2" d="m67.174 309.9-1.153-1.155-3.37-13.477a1.149 1.149 0 0 0-1.114-.871h-9.192a1.148 1.148 0 0 0-1.119 1.412l4.6 19.532a1.151 1.151 0 0 0 1.118.886 1.088 1.088 0 0 0 .218-.022l8.628-1.666.034-.007a2.769 2.769 0 0 0 1.335-.728 2.758 2.758 0 0 0 .018-3.9zm-1.633 2.268a.46.46 0 0 1-.213.119l-7.522 1.453L53.8 296.7h6.843l3.231 12.916a1.15 1.15 0 0 0 .3.534l1.374 1.374a.454.454 0 0 1 .132.325.462.462 0 0 1-.139.322z" transform="translate(-51.195 -294.4)"/>
                </g>
            </g>
            <g id="Group_16326" data-name="Group 16326" transform="translate(62.042 79.595)">
                <g id="Group_16325" data-name="Group 16325">
                    <path id="Rectangle_1064" data-name="Rectangle 1064" class="cls-2" d="M0 0h6.894v2.298H0z"/>
                </g>
            </g>
            <g id="Group_16328" data-name="Group 16328" transform="translate(61.449 65.974)">
                <g id="Group_16327" data-name="Group 16327">
                    <path id="Rectangle_1065" data-name="Rectangle 1065" class="cls-2" transform="rotate(-30.972 6.22 1.724)" d="M0 0h6.699v2.298H0z"/>
                </g>
            </g>
            <g id="Group_16330" data-name="Group 16330" transform="translate(61.459 90.098)">
                <g id="Group_16329" data-name="Group 16329">
                    <path id="Rectangle_1066" data-name="Rectangle 1066" class="cls-2" transform="rotate(-59.036 1.74 .985)" d="M0 0h2.298v6.699H0z"/>
                </g>
            </g>
            <g id="Group_16332" data-name="Group 16332" transform="translate(43.66 61.212)">
                <g id="Group_16331" data-name="Group 16331">
                    <path id="Rectangle_1067" data-name="Rectangle 1067" class="cls-2" d="M0 0h2.298v39.064H0z"/>
                </g>
            </g>
            <g id="Group_16334" data-name="Group 16334" transform="translate(11.489 76.148)">
                <g id="Group_16333" data-name="Group 16333">
                    <path id="Rectangle_1068" data-name="Rectangle 1068" class="cls-2" d="M0 0h2.298v4.596H0z"/>
                </g>
            </g>
            <g id="Group_16336" data-name="Group 16336" transform="translate(6.894 76.148)">
                <g id="Group_16335" data-name="Group 16335">
                    <path id="Rectangle_1069" data-name="Rectangle 1069" class="cls-2" d="M0 0h2.298v4.596H0z"/>
                </g>
            </g>
        </g>
    </g>
</svg>
