<svg xmlns="http://www.w3.org/2000/svg" width="82.453" height="77.208">
    <defs>
        <style>
            .cls-2,.cls-3{fill:#17345e}.cls-3{stroke:#fff}
        </style>
    </defs>
    <g id="phone-chat" transform="translate(.5 -14.914)">
        <g id="Group_16370" data-name="Group 16370" transform="translate(28.524 14.914)">
            <path id="Path_17768" data-name="Path 17768" d="M182.178 14.914h32.767a2.879 2.879 0 0 1 2.879 2.879v26.416a2.881 2.881 0 0 1-2.881 2.881h-22.165l-3.45 3.529-2.912-3.529h-4.239a2.879 2.879 0 0 1-2.879-2.879V17.8a2.881 2.881 0 0 1 2.881-2.881z" transform="translate(-179.297 -14.914)" style="fill:#ffdcc1"/>
        </g>
        <g id="Group_16371" data-name="Group 16371" transform="translate(0 30.129)">
            <path id="Path_17769" data-name="Path 17769" class="cls-2" d="M241.2 112.752a1.59 1.59 0 1 0 .629-1.959 1.606 1.606 0 0 0-.629 1.959z" transform="translate(-202.729 -110.556)"/>
            <path id="Path_17770" data-name="Path 17770" class="cls-2" d="M290.521 112.752a1.59 1.59 0 1 0 .63-1.959 1.607 1.607 0 0 0-.63 1.959z" transform="translate(-244.202 -110.556)"/>
            <path id="Path_17771" data-name="Path 17771" class="cls-2" d="M340.989 113.7a1.59 1.59 0 1 0-1.278-1.611 1.6 1.6 0 0 0 1.278 1.611z" transform="translate(-285.667 -110.551)"/>
            <path id="Path_17772" data-name="Path 17772" class="cls-3" d="M367.981 240.541h-19.928a3.347 3.347 0 0 0-3.343 3.343v16.066a3.346 3.346 0 0 0 3.342 3.342h1.828l1.294 1.568a1.591 1.591 0 0 0 1.16.577h.067a1.59 1.59 0 0 0 1.137-.479l1.63-1.667h12.812a3.347 3.347 0 0 0 3.343-3.343v-16.065a3.346 3.346 0 0 0-3.342-3.342zm.161 19.408a.162.162 0 0 1-.162.161H354.5a1.59 1.59 0 0 0-1.137.479l-.861.88-.645-.781a1.591 1.591 0 0 0-1.227-.578h-2.578a.161.161 0 0 1-.161-.16v-16.066a.162.162 0 0 1 .162-.162h19.928a.161.161 0 0 1 .161.161v16.066z" transform="translate(-289.871 -219.861)"/>
            <path id="Path_17773" data-name="Path 17773" class="cls-3" d="M47.755 189.693a10.9 10.9 0 0 0-15.4 0l-.125.125-9.659-9.659.125-.125a10.9 10.9 0 0 0 0-15.4l-3.1-3.1a10.284 10.284 0 0 0-14.544 0l-1.92 1.92a10.7 10.7 0 0 0 0 15.138L33.8 209.255a10.716 10.716 0 0 0 15.138 0l1.92-1.92a10.284 10.284 0 0 0 0-14.544zm.849 15.392L46.684 207a7.531 7.531 0 0 1-10.638 0L5.385 176.344a7.53 7.53 0 0 1 0-10.638l1.92-1.92a7.1 7.1 0 0 1 10.044 0l3.1 3.1a7.707 7.707 0 0 1 0 10.9l-1.25 1.25a1.591 1.591 0 0 0 0 2.25l11.909 11.909a1.591 1.591 0 0 0 2.25 0l1.25-1.25a7.716 7.716 0 0 1 10.9 0l3.1 3.1a7.11 7.11 0 0 1-.008 10.04z" transform="translate(0 -150.892)"/>
        </g>
    </g>
</svg>
