<svg xmlns="http://www.w3.org/2000/svg" width="422.961" height="138.974">
    <defs>
        <clipPath id="clip-path">
            <path id="Rectangle_1073" data-name="Rectangle 1073" style="fill:none" d="M0 0h422.961v138.973H0z"/>
        </clipPath>
        <style>
            .cls-3{fill:#fff}.cls-4{fill:#beb7b3}
        </style>
    </defs>
    <g id="Group_16356" data-name="Group 16356" transform="translate(-313.994 -228.86)">
        <g id="Group_16355" data-name="Group 16355" transform="translate(313.994 228.86)" style="clip-path:url(#clip-path)">
            <path id="Path_17729" data-name="Path 17729" class="cls-3" d="M425.3 251.538a12.546 12.546 0 0 0-5.9 2.523 3.7 3.7 0 0 0-4.007-2.888 42.4 42.4 0 0 0-7.425 1.642c.481.883 1.78 3.965 1.75 9.767l-.008 1.344-.334 10.618-.049 4.226c-.064 6.787 1.5 8.44 4.777 8.442a59.631 59.631 0 0 0 7.081-.851c-.519-1.087-.993-4.545-1.151-8.323-.849-20.668 5.018-18 9.671-15.659a32.591 32.591 0 0 0 2.314-10.7 17.488 17.488 0 0 0-6.723-.138" transform="translate(-208.085 -203.715)"/>
            <path id="Path_17730" data-name="Path 17730" class="cls-3" d="M434.572 287.235c-7.708-.006-13.2-5.62-14.4-14.419-1.529-11.541 5.175-21.731 14.772-21.727 6.417 0 10.265 4.543 11.037 10.318.957 7.166-3.431 11.437-9.52 11.433a16.534 16.534 0 0 1-6.949-1.776c-.24 4.93 4.769 11.05 15.544 3.743a29.431 29.431 0 0 1 .011 8.142 14.847 14.847 0 0 1-10.495 4.286zm2.08-24.867c-.242-1.81-1.117-2.748-2.561-2.748-2.54 0-4.069 2.963-4.416 6.715a8.74 8.74 0 0 0 2.912.6c3.046 0 4.418-1.923 4.065-4.565" transform="translate(-194.572 -203.808)"/>
            <path id="Path_17731" data-name="Path 17731" class="cls-3" d="M463.229 270.556c-.24-11.518 7.615-20.6 17.231-19.028 7.089 1.161 11.811 7.621 12.017 16.289.24 11.556-7.651 20.577-17.231 19.007-7.055-1.155-11.811-7.559-12.018-16.267m18.59-2.854c-.091-4.092-1.183-6.255-3.125-6.575-3.031-.5-4.932 3.888-4.807 9.606.091 4.109 1.166 6.172 3.069 6.483 3.05.5 4.988-3.818 4.862-9.514" transform="translate(-145.813 -203.513)"/>
            <path id="Path_17732" data-name="Path 17732" class="cls-3" d="M436.287 285.53a26.842 26.842 0 0 1-1.5-10.739 13.756 13.756 0 0 0 8.289 2.94c4.884-.106 4.513-2.7-.606-5.3-3.895-1.976-7.2-4.539-7.483-10.292-.357-7.342 3.786-11.294 14.2-10.884a21.969 21.969 0 0 1 7.5 1.451 25.11 25.11 0 0 1-1.721 9.221c-1.059-1.125-7.406-3.412-9.612-1.851a1.658 1.658 0 0 0-.155 2.348c2.929 3.78 11.122 4.694 11.6 13.115.636 7.668-4.677 11.369-13.117 11.326a20.065 20.065 0 0 1-7.408-1.334" transform="translate(-177.904 -203.656)"/>
            <path id="Path_17733" data-name="Path 17733" class="cls-3" d="m391.227 265.587-.134 8.9c.1 4.39 2.108 5.624 3.809 5.624a9.758 9.758 0 0 0 5.349-1.987 29.834 29.834 0 0 1-.4 9.286 13.394 13.394 0 0 1-8.744 3.161c-4.815 0-10.6-2.208-10.72-12.764s-.676-17.639.532-25.66c.889-4.66 10.7-3.954 10.7-3.954a42.051 42.051 0 0 0-.7 8.115l9.016.017c-.006 3.01-.751 6.136-1.125 9.206z" transform="translate(-239.428 -207.113)"/>
            <path id="Path_17734" data-name="Path 17734" class="cls-3" d="M420.857 273.362c.387-8.463-3.152-13.406-8.5-13.428-3.99-.015-7.57 2.727-8.938 8.012l.194-13.375c.14-9.586-1.214-11.282-4.509-11.294a36.954 36.954 0 0 0-7.03 1.378c.389.868.87 4.171.787 9.959l-.474 32.715c-.1 6.734 1.174 8.412 4.469 8.423a61.733 61.733 0 0 0 7.266-.823c-.453-1.055-.785-2.178-.972-8.27s1.338-16.138 4.654-16.125c1.919.006 2.352 1.57 2.233 4.186l-.587 12.887c-.3 6.6 1.327 8.274 4.622 8.289a55.567 55.567 0 0 0 7.081-.906 22.94 22.94 0 0 1-.912-8.157z" transform="translate(-225.993 -212.611)"/>
            <path id="Path_17735" data-name="Path 17735" class="cls-3" d="M476.276 273.362c.387-8.463-3.152-13.406-8.5-13.428-3.99-.015-7.57 2.727-8.938 8.012l.194-13.375c.14-9.586-1.217-11.282-4.509-11.294a36.957 36.957 0 0 0-7.03 1.378c.389.868.87 4.171.787 9.959l-.474 32.715c-.1 6.734 1.174 8.412 4.469 8.423a61.781 61.781 0 0 0 7.266-.823c-.453-1.055-.785-2.178-.972-8.27s1.336-16.138 4.654-16.125c1.919.006 2.352 1.57 2.233 4.186l-.587 12.887c-.3 6.6 1.327 8.274 4.622 8.289a55.569 55.569 0 0 0 7.081-.906 22.89 22.89 0 0 1-.913-8.157z" transform="translate(-163.536 -212.611)"/>
            <path id="Path_17736" data-name="Path 17736" class="cls-3" d="m479.537 281.686.021-27.14c.006-5.834-.515-9.172-.913-10.054a35.5 35.5 0 0 1 6.957-1.266c3.267.07 4.635 1.8 4.622 11.464l-.034 28.814c.017 5.63.849 6.9 3.627 8.419.051 2.01.2 4-1.412 6.5-7.968-.125-12.826-3.429-12.868-16.733" transform="translate(-128.432 -212.671)"/>
            <path id="Path_17737" data-name="Path 17737" class="cls-3" d="M510.76 243.224a36.2 36.2 0 0 0-6.966 1.41c.4.87.94 4.19.964 10.008l.045 10.884-.042-.111c-1.27-3.752-3.982-6.06-7.534-6.06-5.575 0-9.454 5.247-10.369 13.349-1.5 13.326 6.1 23.135 18.2 23.133a26.1 26.1 0 0 0 10.331-2.259c.055-.008.113-.013.166-.021-.47-1.059-.591-4.55-.606-8.312l-.013-3.5-.023-.019h.023l.519-27.162c-.038-9.637-1.414-11.337-4.692-11.341m-13.175 31.527c.391-3.465 1.563-5.371 3.216-5.371 2.48 0 3.965 5.052 4.05 12.179l.023 4.243a7.653 7.653 0 0 1-.83.045c-5.256 0-7.115-5.294-6.46-11.1" transform="translate(-119.391 -212.672)"/>
            <path id="Path_17738" data-name="Path 17738" class="cls-4" d="M380.8 272.546q2.9-.265 4.773-.264 3.781 0 5.522 1.172a4.159 4.159 0 0 1 1.742 3.72 5.093 5.093 0 0 1-.776 2.8 4.56 4.56 0 0 1-2.065 1.772 4.988 4.988 0 0 1 2.8 1.67 4.739 4.739 0 0 1 .953 3.046 4.926 4.926 0 0 1-1.859 4.26q-1.863 1.362-6.019 1.361H380.8zm5.33 8.376a4.455 4.455 0 0 0 3.031-.981 3.374 3.374 0 0 0 1.127-2.68 2.417 2.417 0 0 0-1.1-2.212 7.531 7.531 0 0 0-3.765-.687 12.246 12.246 0 0 0-2.078.117v6.443zm-.938 9.05a14.308 14.308 0 0 0 3.588-.336 3.2 3.2 0 0 0 1.787-1.112 3.467 3.467 0 0 0 .57-2.1q0-3.427-4.977-3.427h-2.812v6.97z" transform="translate(-238.708 -179.924)"/>
            <path id="Path_17739" data-name="Path 17739" class="cls-4" d="M389.328 272.544a33.249 33.249 0 0 1 4.6-.262q3.924 0 5.724 1.331a4.948 4.948 0 0 1 1.8 4.26 6.38 6.38 0 0 1-.542 2.682 5.242 5.242 0 0 1-1.521 1.961 5.619 5.619 0 0 1-2.242 1.07l5.36 8.493a2.97 2.97 0 0 1-1.376.264 2.376 2.376 0 0 1-2.08-1.142l-4.569-7.147h-2.608v8.025h-2.548zm4.628 9.344q4.834 0 4.833-3.865a3.243 3.243 0 0 0-1.085-2.74 6.241 6.241 0 0 0-3.718-.836 14.158 14.158 0 0 0-2.11.119v7.321z" transform="translate(-229.093 -179.924)"/>
            <path id="Path_17740" data-name="Path 17740" class="cls-4" d="M404.4 272.6a2.516 2.516 0 0 1 .659-.189 4.582 4.582 0 0 1 .776-.072 1.686 1.686 0 0 1 1.727 1.2l6.766 18.479h-2.665l-1.963-5.271h-7.908l-1.9 5.271h-2.578zm4.628 12.069-3.282-9.344-3.31 9.344z" transform="translate(-220.094 -179.862)"/>
            <path id="Path_17741" data-name="Path 17741" class="cls-4" d="M407.446 272.483a3.353 3.353 0 0 1 1.142-.147 2.037 2.037 0 0 1 .981.2 2.184 2.184 0 0 1 .719.764l9.488 14.819V272.4a6.451 6.451 0 0 1 .7-.06 1.606 1.606 0 0 1 1.229.47 1.944 1.944 0 0 1 .44 1.376v17.837h-2.374l-9.956-15.2v15.2h-2.374z" transform="translate(-208.674 -179.863)"/>
            <path id="Path_17742" data-name="Path 17742" class="cls-4" d="M417.24 272.573a44.279 44.279 0 0 1 4.952-.291q4.859 0 7.306 2.429t2.446 7.234a12.633 12.633 0 0 1-.923 4.981 8.241 8.241 0 0 1-2.71 3.484 11.048 11.048 0 0 1-6.5 1.67h-4.571zm4.979 17.339a6.732 6.732 0 0 0 5.286-2.006 8.426 8.426 0 0 0 1.8-5.815q0-3.892-1.729-5.726t-5.33-1.829a17.666 17.666 0 0 0-2.461.147v15.229z" transform="translate(-197.637 -179.924)"/>
            <path id="Path_17743" data-name="Path 17743" class="cls-4" d="M436.632 275.743a6.15 6.15 0 0 0-1.816-.938 6.716 6.716 0 0 0-2.138-.349 4.128 4.128 0 0 0-2.695.774 2.644 2.644 0 0 0-.938 2.153 2.613 2.613 0 0 0 .368 1.391 3.253 3.253 0 0 0 1.214 1.085 14.876 14.876 0 0 0 2.725 1.07 8.562 8.562 0 0 1 3.894 2.24 5.044 5.044 0 0 1 1.229 3.471 5.6 5.6 0 0 1-1.77 4.379 6.983 6.983 0 0 1-4.85 1.6 12.248 12.248 0 0 1-3-.351 6.3 6.3 0 0 1-2.182-.938 1.318 1.318 0 0 1-.732-1.085 1.831 1.831 0 0 1 .249-.774 6.474 6.474 0 0 1 .63-.981 8.776 8.776 0 0 0 2.416 1.4 7.3 7.3 0 0 0 2.62.5 4.361 4.361 0 0 0 2.959-.893 3.112 3.112 0 0 0 1.025-2.474 3.7 3.7 0 0 0-.351-1.67 3.111 3.111 0 0 0-1.142-1.214 10.1 10.1 0 0 0-2.372-1.012 13.346 13.346 0 0 1-3.324-1.361 4.764 4.764 0 0 1-1.685-1.742 5.03 5.03 0 0 1-.557-2.431 5.158 5.158 0 0 1 .791-2.9 5.092 5.092 0 0 1 2.212-1.844 7.825 7.825 0 0 1 3.265-.645 10.319 10.319 0 0 1 2.4.294 7.136 7.136 0 0 1 2.05.791 3.123 3.123 0 0 1 .851.687 1.151 1.151 0 0 1 .262.717 2.637 2.637 0 0 1-.966 1.583c-.079-.079-.172-.162-.279-.249s-.23-.181-.366-.279" transform="translate(-187.829 -180.017)"/>
            <path id="Path_17744" data-name="Path 17744" class="cls-4" d="M354.938 268.259H380.6a1.146 1.146 0 0 0 1.142-1.14v-24.126a1.541 1.541 0 0 0-1.534-1.534h-25.27z" transform="translate(-267.85 -214.661)"/>
            <path id="Path_17745" data-name="Path 17745" class="cls-3" d="M353.188 241.46h-25.063a1.539 1.539 0 0 0-1.531 1.534v24.143a1.144 1.144 0 0 0 1.138 1.142h25.66l.038 47.834a.438.438 0 0 0 .242.393l25.622 11.977a.655.655 0 0 0 .936-.6l-.057-78.541a.867.867 0 0 0-.634-.842l-25.96-6.987a1.393 1.393 0 0 0-.391-.057m20.874 51.711c-1.44 0-2.616-1.457-2.616-3.271s1.176-3.271 2.616-3.271 2.616 1.459 2.616 3.271c0 1.8-1.176 3.271-2.616 3.271" transform="translate(-299.794 -214.66)"/>
            <path id="Path_17746" data-name="Path 17746" class="cls-4" d="M434.724 272.892h-1.7a1.2 1.2 0 0 1-.045-.362.545.545 0 0 1 .151-.432.691.691 0 0 1 .451-.126h3.886a.847.847 0 0 1 .06.347c0 .381-.221.572-.661.572h-1.129v4.667h-1.01zm3.705-.815a.8.8 0 0 1 .5-.121.645.645 0 0 1 .376.115.662.662 0 0 1 .24.294l1.4 3.388 1.4-3.376a.657.657 0 0 1 .264-.315.88.88 0 0 1 .866.015l.272 5.481h-.947l-.164-3.673-1.256 2.815h-.917l-1.206-2.742-.194 3.6h-.981z" transform="translate(-179.9 -180.291)"/>
        </g>
    </g>
</svg>
