<svg xmlns="http://www.w3.org/2000/svg" width="234.856" height="77.167">
    <defs>
        <clipPath id="clip-path">
            <path id="Rectangle_147" data-name="Rectangle 147" style="fill:none" d="M0 0h234.856v77.167H0z"/>
        </clipPath>
        <style>
            .cls-3{fill:#3d5567}
        </style>
    </defs>
    <g id="Group_16307" data-name="Group 16307" transform="translate(-313.994 -228.86)">
        <g id="Group_169" data-name="Group 169" transform="translate(313.994 228.86)" style="clip-path:url(#clip-path)">
            <path id="Path_84" data-name="Path 84" class="cls-3" d="M417.591 251.375a6.966 6.966 0 0 0-3.274 1.4 2.053 2.053 0 0 0-2.225-1.605 23.665 23.665 0 0 0-4.123.913 11.756 11.756 0 0 1 .972 5.422v.746l-.185 5.9-.027 2.347c-.035 3.769.833 4.686 2.653 4.688a33.36 33.36 0 0 0 3.932-.472 17.091 17.091 0 0 1-.639-4.621c-.471-11.476 2.786-9.994 5.37-8.695a18.1 18.1 0 0 0 1.285-5.943 9.685 9.685 0 0 0-3.733-.077" transform="translate(-296.98 -224.821)"/>
            <path id="Path_85" data-name="Path 85" class="cls-3" d="M428.073 271.16c-4.28 0-7.331-3.12-7.993-8.005-.849-6.409 2.873-12.069 8.2-12.066 3.563 0 5.7 2.523 6.128 5.729.531 3.979-1.905 6.35-5.286 6.348a9.182 9.182 0 0 1-3.858-.986c-.133 2.738 2.648 6.137 8.631 2.08a16.335 16.335 0 0 1 .006 4.52 8.234 8.234 0 0 1-5.828 2.38zm1.155-13.808c-.135-1.005-.62-1.526-1.422-1.526-1.41 0-2.259 1.645-2.452 3.729a4.854 4.854 0 0 0 1.617.332 2.055 2.055 0 0 0 2.257-2.534" transform="translate(-294.81 -224.835)"/>
            <path id="Path_86" data-name="Path 86" class="cls-3" d="M463.227 262.015c-.133-6.4 4.228-11.44 9.568-10.566 3.936.645 6.558 4.232 6.673 9.046.133 6.415-4.248 11.424-9.568 10.554-3.918-.641-6.558-4.2-6.673-9.034m10.322-1.585c-.051-2.271-.657-3.473-1.735-3.649-1.683-.276-2.739 2.158-2.669 5.332.051 2.282.647 3.427 1.7 3.6 1.694.278 2.77-2.12 2.7-5.283" transform="translate(-286.977 -224.788)"/>
            <path id="Path_87" data-name="Path 87" class="cls-3" d="M435.6 270.273a14.9 14.9 0 0 1-.83-5.963 7.638 7.638 0 0 0 4.6 1.632c2.712-.059 2.506-1.5-.337-2.943-2.163-1.1-4-2.52-4.155-5.715-.2-4.077 2.1-6.271 7.886-6.043a12.2 12.2 0 0 1 4.166.805 13.942 13.942 0 0 1-.955 5.12c-.588-.624-4.112-1.893-5.337-1.026a.919.919 0 0 0-.086 1.3c1.626 2.1 6.176 2.608 6.444 7.282.353 4.258-2.6 6.313-7.284 6.289a11.14 11.14 0 0 1-4.114-.74" transform="translate(-292.132 -224.811)"/>
            <path id="Path_88" data-name="Path 88" class="cls-3" d="m386.3 257.835-.074 4.943c.053 2.438 1.17 3.123 2.115 3.123a5.409 5.409 0 0 0 2.97-1.1 16.568 16.568 0 0 1-.221 5.156 7.444 7.444 0 0 1-4.855 1.755c-2.674 0-5.885-1.226-5.952-7.087s-.376-9.794.3-14.248c.494-2.588 5.941-2.2 5.941-2.2a23.352 23.352 0 0 0-.39 4.506l5.006.008a44.489 44.489 0 0 1-.625 5.113z" transform="translate(-302.015 -225.367)"/>
            <path id="Path_89" data-name="Path 89" class="cls-3" d="M408.059 259.982c.215-4.7-1.75-7.444-4.717-7.455-2.216-.008-4.2 1.513-4.963 4.448l.107-7.426c.078-5.322-.674-6.264-2.5-6.271a20.7 20.7 0 0 0-3.9.765 18.764 18.764 0 0 1 .437 5.53l-.263 18.166c-.053 3.739.652 4.671 2.481 4.677a34.513 34.513 0 0 0 4.034-.456c-.252-.587-.436-1.209-.54-4.593s.743-8.961 2.584-8.953c1.065 0 1.306.873 1.24 2.324l-.326 7.156c-.167 3.662.737 4.594 2.566 4.6a30.858 30.858 0 0 0 3.932-.5 12.734 12.734 0 0 1-.507-4.529z" transform="translate(-299.857 -226.25)"/>
            <path id="Path_90" data-name="Path 90" class="cls-3" d="M463.478 259.982c.215-4.7-1.75-7.444-4.717-7.455-2.216-.008-4.2 1.513-4.963 4.448l.107-7.426c.078-5.322-.676-6.264-2.5-6.271a20.706 20.706 0 0 0-3.9.765 18.761 18.761 0 0 1 .437 5.53l-.263 18.166c-.053 3.739.652 4.671 2.481 4.677a34.54 34.54 0 0 0 4.034-.456c-.252-.587-.436-1.209-.54-4.593s.742-8.961 2.584-8.953c1.065 0 1.306.873 1.24 2.324l-.326 7.156c-.168 3.662.737 4.594 2.566 4.6a30.858 30.858 0 0 0 3.932-.5 12.705 12.705 0 0 1-.507-4.529z" transform="translate(-289.824 -226.25)"/>
            <path id="Path_91" data-name="Path 91" class="cls-3" d="m479.141 264.581.012-15.07a19.357 19.357 0 0 0-.507-5.582 19.725 19.725 0 0 1 3.863-.7c1.814.039 2.574 1 2.566 6.366l-.019 16c.009 3.126.471 3.833 2.014 4.675a5.5 5.5 0 0 1-.784 3.607c-4.424-.07-7.122-1.9-7.145-9.291" transform="translate(-284.185 -226.259)"/>
            <path id="Path_92" data-name="Path 92" class="cls-3" d="M500.046 243.224a20.177 20.177 0 0 0-3.868.782 19.236 19.236 0 0 1 .535 5.558l.025 6.043-.024-.061a4.419 4.419 0 0 0-4.183-3.365c-3.1 0-5.25 2.914-5.758 7.412-.835 7.4 3.388 12.845 10.105 12.845a14.468 14.468 0 0 0 5.736-1.255c.031 0 .063-.006.092-.011a18.708 18.708 0 0 1-.337-4.616l-.007-1.943-.013-.012h.013l.288-15.082c-.021-5.351-.785-6.3-2.605-6.3m-7.314 17.505c.217-1.924.868-2.982 1.786-2.982 1.377 0 2.2 2.8 2.249 6.763l.013 2.356a4.249 4.249 0 0 1-.461.025c-2.918 0-3.951-2.94-3.587-6.162" transform="translate(-282.732 -226.259)"/>
            <path id="Path_93" data-name="Path 93" class="cls-3" d="M380.8 272.428q1.609-.147 2.65-.146a5.62 5.62 0 0 1 3.066.651 2.309 2.309 0 0 1 .967 2.066 2.828 2.828 0 0 1-.431 1.553 2.532 2.532 0 0 1-1.147.984 2.77 2.77 0 0 1 1.553.927 2.632 2.632 0 0 1 .529 1.691 2.735 2.735 0 0 1-1.032 2.366 5.755 5.755 0 0 1-3.342.756H380.8zm2.96 4.651a2.474 2.474 0 0 0 1.683-.544 1.873 1.873 0 0 0 .626-1.488 1.342 1.342 0 0 0-.609-1.228 4.181 4.181 0 0 0-2.09-.381 6.8 6.8 0 0 0-1.154.065v3.577zm-.521 5.025a7.945 7.945 0 0 0 1.992-.187 1.775 1.775 0 0 0 .992-.618 1.925 1.925 0 0 0 .316-1.163q0-1.9-2.764-1.9h-1.561v3.87z" transform="translate(-301.9 -220.999)"/>
            <path id="Path_94" data-name="Path 94" class="cls-3" d="M389.328 272.427a18.466 18.466 0 0 1 2.555-.145 5.393 5.393 0 0 1 3.178.739 2.748 2.748 0 0 1 1 2.366 3.543 3.543 0 0 1-.3 1.489 2.911 2.911 0 0 1-.844 1.089 3.12 3.12 0 0 1-1.245.594l2.976 4.716a1.649 1.649 0 0 1-.764.146 1.319 1.319 0 0 1-1.155-.634l-2.537-3.968h-1.448v4.456h-1.415zm2.57 5.188q2.684 0 2.683-2.146a1.8 1.8 0 0 0-.6-1.521 3.465 3.465 0 0 0-2.064-.464 7.864 7.864 0 0 0-1.172.066v4.065z" transform="translate(-300.355 -220.999)"/>
            <path id="Path_95" data-name="Path 95" class="cls-3" d="M401.248 272.482a1.4 1.4 0 0 1 .366-.105 2.546 2.546 0 0 1 .431-.04.936.936 0 0 1 .955.663l3.757 10.261h-1.48l-1.09-2.927H399.8l-1.056 2.927h-1.431zm2.57 6.7L402 274l-1.838 5.188z" transform="translate(-298.909 -220.989)"/>
            <path id="Path_96" data-name="Path 96" class="cls-3" d="M407.446 272.418a1.863 1.863 0 0 1 .634-.082 1.131 1.131 0 0 1 .544.113 1.213 1.213 0 0 1 .4.424l5.269 8.228v-8.733a3.6 3.6 0 0 1 .391-.033.892.892 0 0 1 .683.261 1.08 1.08 0 0 1 .245.764v9.9h-1.318l-5.528-8.441v8.441h-1.318z" transform="translate(-297.075 -220.989)"/>
            <path id="Path_97" data-name="Path 97" class="cls-3" d="M417.24 272.444a24.582 24.582 0 0 1 2.749-.162 5.534 5.534 0 0 1 4.057 1.349 5.435 5.435 0 0 1 1.358 4.017 7.015 7.015 0 0 1-.513 2.766 4.576 4.576 0 0 1-1.5 1.935 6.134 6.134 0 0 1-3.61.927h-2.541zm2.76 9.628a3.738 3.738 0 0 0 2.935-1.114 4.678 4.678 0 0 0 1-3.229 4.506 4.506 0 0 0-.96-3.179 3.9 3.9 0 0 0-2.96-1.016 9.806 9.806 0 0 0-1.366.082v8.456z" transform="translate(-295.302 -220.999)"/>
            <path id="Path_98" data-name="Path 98" class="cls-3" d="M431.878 274.167a3.443 3.443 0 0 0-1.009-.521 3.729 3.729 0 0 0-1.187-.194 2.292 2.292 0 0 0-1.5.43 1.468 1.468 0 0 0-.521 1.2 1.451 1.451 0 0 0 .2.772 1.806 1.806 0 0 0 .674.6 8.258 8.258 0 0 0 1.513.594 4.754 4.754 0 0 1 2.162 1.244 2.8 2.8 0 0 1 .683 1.927 3.11 3.11 0 0 1-.983 2.432 3.878 3.878 0 0 1-2.693.886 6.8 6.8 0 0 1-1.666-.195 3.5 3.5 0 0 1-1.212-.521.732.732 0 0 1-.406-.6 1.017 1.017 0 0 1 .138-.43 3.6 3.6 0 0 1 .35-.544 4.874 4.874 0 0 0 1.342.78 4.053 4.053 0 0 0 1.455.276 2.422 2.422 0 0 0 1.643-.5 1.728 1.728 0 0 0 .569-1.374 2.053 2.053 0 0 0-.195-.927 1.728 1.728 0 0 0-.634-.674 5.61 5.61 0 0 0-1.317-.562 7.408 7.408 0 0 1-1.846-.756 2.646 2.646 0 0 1-.935-.967 2.793 2.793 0 0 1-.309-1.35 2.864 2.864 0 0 1 .439-1.611 2.828 2.828 0 0 1 1.228-1.024 4.345 4.345 0 0 1 1.813-.358 5.73 5.73 0 0 1 1.333.163 3.962 3.962 0 0 1 1.139.439 1.735 1.735 0 0 1 .472.381.639.639 0 0 1 .145.4 1.464 1.464 0 0 1-.536.879c-.044-.044-.1-.09-.155-.138s-.128-.1-.2-.155" transform="translate(-293.726 -221.014)"/>
            <path id="Path_99" data-name="Path 99" d="M354.938 256.34h14.247a.636.636 0 0 0 .634-.633v-13.4a.856.856 0 0 0-.852-.852h-14.03z" transform="translate(-306.581 -226.579)" style="fill:#beb7b3"/>
            <path id="Path_100" data-name="Path 100" class="cls-3" d="M341.361 241.459h-13.917a.855.855 0 0 0-.85.852v13.407a.635.635 0 0 0 .632.633h14.248l.021 26.561a.242.242 0 0 0 .135.219l14.227 6.652a.365.365 0 0 0 .52-.332l-.032-43.611a.48.48 0 0 0-.352-.467l-14.415-3.881a.775.775 0 0 0-.217-.032m11.591 28.714a1.861 1.861 0 1 1 1.453-1.816 1.665 1.665 0 0 1-1.453 1.816" transform="translate(-311.713 -226.579)"/>
            <path id="Path_101" data-name="Path 101" class="cls-3" d="M433.948 272.476H433a.667.667 0 0 1-.025-.2.3.3 0 0 1 .084-.24.384.384 0 0 1 .25-.07h2.158a.47.47 0 0 1 .033.193c0 .211-.123.318-.367.318h-.627v2.591h-.561zm2.057-.452a.443.443 0 0 1 .276-.067.358.358 0 0 1 .209.064.367.367 0 0 1 .133.163l.778 1.881.777-1.874a.364.364 0 0 1 .146-.175.488.488 0 0 1 .481.008l.151 3.044h-.528l-.091-2.04-.7 1.564h-.509l-.67-1.522-.107 2h-.544z" transform="translate(-292.452 -221.058)"/>
        </g>
    </g>
</svg>
